<svg width="241" height="68" viewBox="0 0 241 68" fill="none" xmlns="http://www.w3.org/2000/svg">
<path fill-rule="evenodd" clip-rule="evenodd" d="M218 0C230.703 0 241 10.2974 241 23V44.7485C241 57.451 230.703 67.7485 218 67.7485H120.626C120.557 67.7485 120.5 67.805 120.5 67.8747V67.8747C120.5 67.9444 120.443 68.0009 120.374 68.0009H23C10.2974 68.0009 0 57.7035 0 45.0009V23.2524C0 10.5499 10.2975 0.252441 23 0.252441H79.3273C84.096 0.252441 86.4364 4.66883 89.3316 10.132C94.0156 18.9706 100.152 30.549 120.371 30.598C120.441 30.5981 120.5 30.5416 120.5 30.4719V30.4719C120.5 30.4022 120.559 30.3457 120.629 30.3455C140.848 30.2966 146.984 18.7181 151.668 9.87954C154.564 4.41639 156.904 0 161.673 0H218Z" fill="#C4C4C4"/>
</svg>
